<svg xmlns="http://www.w3.org/2000/svg" viewBox="0 0 64 64"><rect width="64" height="64" rx="18" fill="#c31d4c"/><defs><mask id="m29" maskUnits="userSpaceOnUse" x="-10" y="-10" width="84" height="84"><rect x="11" y="13" width="40" height="40" fill="#fff"/><circle cx="11.00" cy="13.00" r="2.4" fill="#000"/><circle cx="11.00" cy="53.00" r="2.4" fill="#000"/><circle cx="11.00" cy="13.00" r="2.4" fill="#000"/><circle cx="51.00" cy="13.00" r="2.4" fill="#000"/><circle cx="17.67" cy="13.00" r="2.4" fill="#000"/><circle cx="17.67" cy="53.00" r="2.4" fill="#000"/><circle cx="11.00" cy="19.67" r="2.4" fill="#000"/><circle cx="51.00" cy="19.67" r="2.4" fill="#000"/><circle cx="24.33" cy="13.00" r="2.4" fill="#000"/><circle cx="24.33" cy="53.00" r="2.4" fill="#000"/><circle cx="11.00" cy="26.33" r="2.4" fill="#000"/><circle cx="51.00" cy="26.33" r="2.4" fill="#000"/><circle cx="31.00" cy="13.00" r="2.4" fill="#000"/><circle cx="31.00" cy="53.00" r="2.4" fill="#000"/><circle cx="11.00" cy="33.00" r="2.4" fill="#000"/><circle cx="51.00" cy="33.00" r="2.4" fill="#000"/><circle cx="37.67" cy="13.00" r="2.4" fill="#000"/><circle cx="37.67" cy="53.00" r="2.4" fill="#000"/><circle cx="11.00" cy="39.67" r="2.4" fill="#000"/><circle cx="51.00" cy="39.67" r="2.4" fill="#000"/><circle cx="44.33" cy="13.00" r="2.4" fill="#000"/><circle cx="44.33" cy="53.00" r="2.4" fill="#000"/><circle cx="11.00" cy="46.33" r="2.4" fill="#000"/><circle cx="51.00" cy="46.33" r="2.4" fill="#000"/><circle cx="51.00" cy="13.00" r="2.4" fill="#000"/><circle cx="51.00" cy="53.00" r="2.4" fill="#000"/><circle cx="11.00" cy="53.00" r="2.4" fill="#000"/><circle cx="51.00" cy="53.00" r="2.4" fill="#000"/></mask></defs>
    <rect x="7" y="9" width="48" height="48" fill="#ffffff" mask="url(#m29)" />
      <rect x="16" y="18" width="30" height="30" rx="1.5" fill="#ef5d86"/>
      <g fill="#ffffff"><path d="M22 23 h6.75 v14.85 h12.15 v6.75 h-18.900000000000002 Z"/></g>
      <g fill="none" stroke="#ffffff" stroke-width="2.2" stroke-linecap="round" opacity="0.95">
        <path d="M34 22 q2 -3 4 0 t4 0 q2 -3 4 0 t4 0 q2 -3 4 0 t4 0 q2 -3 4 0 t4 0"/><path d="M38 28 q2 -3 4 0 t4 0 q2 -3 4 0 t4 0 q2 -3 4 0 t4 0"/>
      </g></svg>